<?xml version="1.0" encoding="UTF-8"?>
<svg width="21px" height="26px" viewBox="0 0 21 26" version="1.1" xmlns="http://www.w3.org/2000/svg" xmlns:xlink="http://www.w3.org/1999/xlink">
    <title>3937DF2E-252B-469E-8375-F185333582B2</title>
    <g id="homepage" stroke="none" stroke-width="1" fill="none" fill-rule="evenodd">
        <g id="contact" transform="translate(-1257.000000, -47.000000)" fill="#000000" fill-rule="nonzero">
            <g id="Group-4" transform="translate(1244.000000, 37.000000)">
                <g id="shop-bag" transform="translate(13.000000, 10.000000)">
                    <path d="M20.4573353,23.236923 L19.0866004,6.292988 C19.0487438,5.82495643 18.6579418,5.46448166 18.1883939,5.46448166 L15.4977483,5.46448166 L15.4977483,5.24701509 C15.4977483,2.35390965 13.1438387,1.48611969e-15 10.2504195,1.48611969e-15 C7.35700034,1.48611969e-15 5.00309069,2.35390965 5.00309069,5.24732882 L5.00309069,5.46479539 L2.31244511,5.46479539 C1.84294947,5.46479539 1.45209527,5.82527016 1.41423862,6.29330173 L0.0435037724,23.236923 C-0.010562214,23.9041203 0.218355473,24.5685986 0.671955504,25.0600553 C1.12586926,25.5520871 1.76990288,25.8341819 2.43887795,25.8341819 L18.0619611,25.8341819 C18.7312499,25.8341819 19.375022,25.5520871 19.8288835,25.0600553 C20.2824835,24.5682849 20.5110875,23.9038066 20.4573353,23.236923 L20.4573353,23.236923 Z M6.80546453,5.24732882 C6.80546453,3.3479081 8.35099879,1.80237384 10.2504195,1.80237384 C12.1498402,1.80237384 13.6953745,3.3479081 13.6953745,5.24732882 L13.6953745,5.46479539 L6.80546453,5.46479539 L6.80546453,5.24732882 Z M18.5038485,23.838028 C18.4371811,23.9107086 18.2911402,24.0318081 18.0619611,24.0318081 L2.43887795,24.0318081 C2.20969882,24.0318081 2.06365792,23.9107609 1.99699048,23.838028 C1.93032304,23.7659226 1.82156361,23.6106267 1.8401782,23.3823365 L3.14387959,7.26690779 L5.0030384,7.26690779 L5.0030384,11.7344106 C5.0030384,12.2321941 5.40649406,12.6355975 5.90422532,12.6355975 C6.40195659,12.6355975 6.80541224,12.2321418 6.80541224,11.7344106 L6.80541224,7.26690779 L13.6953222,7.26690779 L13.6953222,11.7344106 C13.6953222,12.2321941 14.0987779,12.6355975 14.5965091,12.6355975 C15.0942927,12.6355975 15.497696,12.2321418 15.497696,11.7344106 L15.497696,7.26690779 L17.3568549,7.26690779 L18.6605562,23.3826502 C18.6792754,23.6109404 18.5702545,23.7659226 18.5038485,23.838028 Z" id="Shape"></path>
                </g>
            </g>
        </g>
    </g>
</svg>